<svg width="40" height="40" viewBox="0 0 40 40" fill="none" xmlns="http://www.w3.org/2000/svg">
<path d="M20 1.8325C9.96627 1.8325 1.83252 9.96625 1.83252 20C1.83252 30.0338 9.96627 38.1675 20 38.1675C30.0338 38.1675 38.1675 30.0338 38.1675 20C38.1675 9.96625 30.0338 1.8325 20 1.8325V1.8325ZM20 36.9175C10.675 36.9175 3.08252 29.3275 3.08252 20C3.08252 10.675 10.675 3.0825 20 3.0825C29.3275 3.0825 36.9188 10.6725 36.9188 19.9988C36.9188 29.3263 29.3275 36.9163 20 36.9163V36.9175Z" fill="#E4A951"/>
<path d="M13.88 17.5C15.045 17.5 15.99 15.6463 15.99 13.36C15.99 11.0738 15.0463 9.22 13.88 9.22C12.7138 9.22 11.77 11.0738 11.77 13.36C11.77 15.6463 12.715 17.5 13.88 17.5ZM25.9113 17.5C27.0775 17.5 28.02 15.6463 28.02 13.36C28.02 11.0738 27.075 9.22 25.91 9.22C24.7438 9.22 23.7975 11.0738 23.7975 13.36C23.7975 15.6463 24.75 17.5 25.9125 17.5H25.9113Z" fill="#E4A951"/>
<path d="M10.1775 26.4875C13.0725 30.3025 16.435 32.5 20.025 32.5C23.7375 32.5 27.2075 30.165 30.1625 26.1125C27.02 28.3063 23.55 29.5313 19.895 29.5313C16.455 29.5313 13.175 28.4438 10.1787 26.4863L10.1775 26.4875Z" fill="#E4A951"/>
</svg>
