<svg width="40" height="40" viewBox="0 0 40 40" fill="none" xmlns="http://www.w3.org/2000/svg">
<path d="M30.7733 3.52333C30.5042 3.38178 30.2014 3.31672 29.8978 3.33523C29.5943 3.35374 29.3016 3.45512 29.0517 3.62833L7.385 18.6283C7.16427 18.7824 6.984 18.9875 6.85952 19.2261C6.73504 19.4648 6.67004 19.73 6.67004 19.9992C6.67004 20.2683 6.73504 20.5335 6.85952 20.7722C6.984 21.0109 7.16427 21.2159 7.385 21.37L29.0517 36.37C29.3017 36.543 29.5943 36.6443 29.8978 36.663C30.2013 36.6816 30.5041 36.6169 30.7735 36.4758C31.0428 36.3347 31.2684 36.1226 31.4258 35.8624C31.5833 35.6023 31.6666 35.3041 31.6667 35V5C31.6667 4.69577 31.5835 4.39733 31.426 4.13703C31.2685 3.87673 31.0428 3.6645 30.7733 3.52333ZM28.3333 31.8183L11.2617 20L28.3333 8.18167V31.8183Z" fill="white"/>
</svg>
