<svg width="40" height="40" viewBox="0 0 40 40" fill="none" xmlns="http://www.w3.org/2000/svg">
<path d="M9.22667 36.4767C9.49628 36.6169 9.79899 36.6811 10.1023 36.6623C10.4056 36.6435 10.6981 36.5424 10.9483 36.37L32.615 21.37C32.8364 21.2166 33.0173 21.0119 33.1423 20.7733C33.2672 20.5347 33.3325 20.2693 33.3325 20C33.3325 19.7307 33.2672 19.4653 33.1423 19.2267C33.0173 18.9881 32.8364 18.7834 32.615 18.63L10.9483 3.63C10.6986 3.45576 10.4058 3.35343 10.1018 3.33418C9.7979 3.31492 9.49451 3.37948 9.22475 3.5208C8.95499 3.66213 8.72921 3.87481 8.57202 4.13564C8.41483 4.39648 8.33227 4.69546 8.33333 5V35C8.33328 35.3042 8.41651 35.6027 8.57398 35.863C8.73145 36.1233 8.95717 36.3355 9.22667 36.4767ZM11.6667 8.18167L28.7383 20L11.6667 31.8183V8.18167Z" fill="white"/>
</svg>
