<svg width="26" height="34" viewBox="0 0 26 34" fill="none" xmlns="http://www.w3.org/2000/svg">
<path d="M1.22667 33.4767C1.49628 33.6169 1.79899 33.6811 2.1023 33.6623C2.40562 33.6435 2.6981 33.5424 2.94833 33.37L24.615 18.37C24.8364 18.2166 25.0173 18.0119 25.1423 17.7733C25.2672 17.5347 25.3325 17.2693 25.3325 17C25.3325 16.7307 25.2672 16.4653 25.1423 16.2267C25.0173 15.9881 24.8364 15.7834 24.615 15.63L2.94833 0.63C2.69857 0.455758 2.40576 0.353431 2.10183 0.334175C1.7979 0.31492 1.49451 0.379475 1.22475 0.520803C0.954993 0.66213 0.72921 0.874806 0.572021 1.13564C0.414831 1.39648 0.332268 1.69546 0.333334 2V32C0.333284 32.3042 0.416505 32.6027 0.573979 32.863C0.731453 33.1233 0.95717 33.3355 1.22667 33.4767ZM3.66667 5.18167L20.7383 17L3.66667 28.8183V5.18167Z" fill="white"/>
</svg>
